<svg width="62" xmlns="http://www.w3.org/2000/svg" height="62" fill="none"><g style="fill: rgb(0, 0, 0);"><path d="M31.000,33.865C31.000,21.475,21.571,11.287,9.495,10.088C8.883,10.029,8.275,10.231,7.820,10.644C7.365,11.058,7.105,11.643,7.104,12.258L7.104,27.359C7.104,30.952,10.017,33.865,13.610,33.865Z" fill="none" style="fill: none;" class="fills"/><g fill="none" stroke-linejoin="round" class="strokes"><g class="inner-stroke-shape"><defs><clipPath id="b"><use href="#a"/></clipPath><path d="M31.000,33.865C31.000,21.475,21.571,11.287,9.495,10.088C8.883,10.029,8.275,10.231,7.820,10.644C7.365,11.058,7.105,11.643,7.104,12.258L7.104,27.359C7.104,30.952,10.017,33.865,13.610,33.865Z" id="a" style="fill: none; stroke-width: 5; stroke: rgb(62, 143, 176); stroke-opacity: 1;"/></defs><use href="#a" clip-path="url('#b')"/></g></g><path d="M17.319,51.924C24.875,51.924,31.000,45.799,31.000,38.242L31.000,33.864L14.948,33.864C12.868,33.863,10.872,34.689,9.401,36.160C7.929,37.631,7.103,39.627,7.104,41.708L7.104,41.708C7.105,47.349,11.677,51.922,17.319,51.924ZM31.000,33.865C31.000,21.475,40.429,11.287,52.505,10.088C53.117,10.029,53.725,10.231,54.180,10.644C54.635,11.058,54.895,11.643,54.896,12.258L54.896,27.359C54.896,30.952,51.983,33.865,48.390,33.865Z" fill="none" style="fill: none;" class="fills"/><g fill="none" stroke-linejoin="round" class="strokes"><g class="inner-stroke-shape"><defs><clipPath id="d"><use href="#c"/></clipPath><path d="M17.319,51.924C24.875,51.924,31.000,45.799,31.000,38.242L31.000,33.864L14.948,33.864C12.868,33.863,10.872,34.689,9.401,36.160C7.929,37.631,7.103,39.627,7.104,41.708L7.104,41.708C7.105,47.349,11.677,51.922,17.319,51.924ZM31.000,33.865C31.000,21.475,40.429,11.287,52.505,10.088C53.117,10.029,53.725,10.231,54.180,10.644C54.635,11.058,54.895,11.643,54.896,12.258L54.896,27.359C54.896,30.952,51.983,33.865,48.390,33.865Z" id="c" style="fill: none; stroke-width: 5; stroke: rgb(62, 143, 176); stroke-opacity: 1;"/></defs><use href="#c" clip-path="url('#d')"/></g></g><path d="M44.681,51.924C37.125,51.924,31.000,45.799,31.000,38.242L31.000,33.864L47.053,33.864C49.133,33.863,51.129,34.689,52.600,36.160C54.071,37.632,54.897,39.627,54.896,41.708L54.896,41.708C54.895,47.349,50.323,51.922,44.681,51.924Z" fill="none" style="fill: none;" class="fills"/><g fill="none" stroke-linejoin="round" class="strokes"><g class="inner-stroke-shape"><defs><clipPath id="f"><use href="#e"/></clipPath><path d="M44.681,51.924C37.125,51.924,31.000,45.799,31.000,38.242L31.000,33.864L47.053,33.864C49.133,33.863,51.129,34.689,52.600,36.160C54.071,37.632,54.897,39.627,54.896,41.708L54.896,41.708C54.895,47.349,50.323,51.922,44.681,51.924Z" id="e" style="fill: none; stroke-width: 5; stroke: rgb(62, 143, 176); stroke-opacity: 1;"/></defs><use href="#e" clip-path="url('#f')"/></g></g></g></svg>