<svg width="62" xmlns="http://www.w3.org/2000/svg" height="62" fill="none"><g style="fill: rgb(0, 0, 0);"><path d="M11.405,18.652C10.842,19.013,10.501,19.636,10.501,20.305L10.501,45.286C10.513,46.812,11.396,48.197,12.775,48.851L28.171,56.136C29.967,56.962,32.033,56.962,33.829,56.136L49.225,48.851C50.604,48.197,51.487,46.812,51.499,45.286L51.499,20.305C51.503,19.628,51.150,18.999,50.569,18.652L44.808,15.681L44.808,13.098C44.805,12.623,44.671,12.158,44.420,11.754L40.985,6.174C40.633,5.598,40.006,5.247,39.331,5.247C38.656,5.247,38.030,5.598,37.678,6.174L34.358,11.625L32.653,8.861C32.292,8.297,31.669,7.957,31.000,7.957C30.330,7.976,29.711,8.324,29.347,8.887L27.668,11.625L24.283,6.174C23.931,5.598,23.305,5.247,22.630,5.247C21.955,5.247,21.329,5.598,20.977,6.174L17.580,11.754C17.329,12.158,17.195,12.623,17.192,13.098L17.192,15.681ZM44.808,18.626L46.616,19.530L44.808,20.382ZM38.505,9.765L40.158,9.765L41.450,11.858L37.213,11.858ZM42.225,14.441L42.225,21.597L40.649,22.346L40.649,14.441ZM36.464,14.441L38.065,14.441L38.065,23.560L36.464,24.335ZM21.816,9.765L23.470,9.765L24.761,11.858L20.525,11.858ZM25.536,14.441L25.536,24.309L23.960,23.560L23.960,14.441ZM19.775,14.441L21.377,14.441L21.377,22.346L19.775,21.597ZM17.192,18.626L17.192,20.382L15.384,19.530ZM13.860,46.500C13.388,46.280,13.086,45.807,13.085,45.286L13.085,21.287L29.695,29.140L29.695,53.914ZM29.695,26.273L28.120,25.523L28.120,17.153L29.695,17.153ZM28.869,14.570L30.186,12.452L31.788,12.452L33.105,14.570ZM33.880,17.153L33.880,25.549L32.279,26.298L32.279,17.153ZM32.292,53.940L32.292,29.166L48.928,21.287L48.928,45.286C48.929,45.815,48.614,46.293,48.128,46.500Z" style="fill: rgb(62, 143, 176); fill-opacity: 1;" class="fills"/></g></svg>