<svg width="62" xmlns="http://www.w3.org/2000/svg" height="62" fill="none"><g style="fill: rgb(0, 0, 0);"><path d="M33.583,50.561L15.500,50.561C10.282,50.561,7.388,50.561,5.296,48.469C3.229,46.402,3.229,43.534,3.229,38.290L3.229,20.207C3.229,17.443,3.229,15.763,4.547,14.446C5.890,13.103,7.569,13.103,10.333,13.103L43.917,13.103C52.106,13.103,58.771,19.768,58.771,27.957C58.771,36.146,52.106,42.811,43.917,42.811L43.271,42.811C43.245,44.258,43.142,45.239,42.754,46.169C42.031,47.900,40.688,49.243,38.931,49.993C37.587,50.535,36.192,50.535,33.583,50.561ZZM10.333,16.978C9.042,16.978,7.569,16.978,7.285,17.158C7.104,17.339,7.104,18.915,7.104,20.207L7.104,38.290C7.104,42.811,7.130,44.826,8.034,45.730C8.964,46.660,10.979,46.686,15.500,46.686L33.583,46.686C35.676,46.686,36.813,46.686,37.407,46.454C38.208,46.118,38.827,45.498,39.138,44.723C39.370,44.128,39.370,42.914,39.370,40.899C39.370,39.840,40.248,38.962,41.308,38.962L43.891,38.962C49.949,38.948,54.856,34.040,54.870,27.983C54.856,21.925,49.949,17.018,43.891,17.003L10.333,16.978ZZM43.917,36.353L41.333,36.353C40.274,36.353,39.396,35.474,39.396,34.415L39.396,21.499C39.396,20.439,40.274,19.561,41.333,19.561L43.917,19.561C48.541,19.561,52.313,23.333,52.313,27.957C52.313,32.581,48.541,36.353,43.917,36.353ZM43.271,32.478L43.917,32.478C46.397,32.478,48.438,30.437,48.438,27.957C48.438,25.477,46.397,23.436,43.917,23.436L43.271,23.436ZM21.852,42.217C22.214,42.604,22.731,42.811,23.247,42.811C23.790,42.811,24.281,42.579,24.642,42.217L33.452,33.175C36.191,30.325,36.191,25.821,33.452,22.971C30.765,20.207,26.063,20.207,23.377,22.971L23.247,23.100L23.118,22.971C20.432,20.233,15.730,20.233,13.043,22.971C10.304,25.821,10.304,30.325,13.043,33.175ZM15.807,30.463C14.516,29.145,14.516,27.001,15.807,25.684L15.833,25.684C17.047,24.443,19.140,24.443,20.354,25.684L21.878,27.234C22.602,27.983,23.919,27.983,24.642,27.234L26.167,25.684C27.381,24.443,29.473,24.443,30.687,25.684C31.979,27.001,31.979,29.145,30.687,30.463L23.247,38.084Z" fill-rule="evenodd" color="#000" style="fill: rgb(62, 143, 176); fill-opacity: 1;" class="fills"/></g></svg>