<svg width="35" xmlns="http://www.w3.org/2000/svg" height="35" fill="none"><g style="fill: rgb(0, 0, 0);"><path d="M4.375,18.958C4.375,26.207,10.251,32.083,17.500,32.083C17.500,24.792,11.623,18.958,4.375,18.958ZM17.500,8.021C19.514,8.021,21.146,9.653,21.146,11.667C21.146,13.680,19.514,15.313,17.500,15.313C15.486,15.313,13.854,13.680,13.854,11.667C13.854,9.653,15.486,8.021,17.500,8.021ZM8.167,14.948C8.167,16.961,9.799,18.594,11.813,18.594C12.585,18.594,13.300,18.346,13.854,17.952L13.854,18.229C13.854,20.243,15.486,21.875,17.500,21.875C19.514,21.875,21.146,20.243,21.146,18.229L21.146,17.952C21.700,18.346,22.415,18.594,23.188,18.594C25.201,18.594,26.833,16.961,26.833,14.948C26.833,13.490,25.973,12.250,24.748,11.667C25.973,11.083,26.833,9.829,26.833,8.385C26.833,6.372,25.201,4.740,23.188,4.740C22.415,4.740,21.700,4.973,21.146,5.381L21.146,5.104C21.146,3.091,19.514,1.458,17.500,1.458C15.486,1.458,13.854,3.091,13.854,5.104L13.854,5.381C13.300,4.973,12.585,4.740,11.813,4.740C9.799,4.740,8.167,6.372,8.167,8.385C8.167,9.829,9.027,11.083,10.252,11.667C9.027,12.250,8.167,13.490,8.167,14.948ZM17.500,32.083C24.749,32.083,30.625,26.207,30.625,18.958C23.333,18.958,17.500,24.792,17.500,32.083Z" style="fill: rgb(255, 255, 255); fill-opacity: 1;" class="fills"/></g></svg>