<svg width="50" xmlns="http://www.w3.org/2000/svg" height="50" fill="none"><g style="fill: rgb(0, 0, 0);"><path d="M25.000,16.016C20.038,16.016,16.016,20.038,16.016,25.000C16.016,29.962,20.038,33.984,25.000,33.984C29.962,33.984,33.984,29.962,33.984,25.000C33.978,20.041,29.959,16.022,25.000,16.016ZM25.000,31.641C21.332,31.641,18.359,28.668,18.359,25.000C18.359,21.332,21.332,18.359,25.000,18.359C28.668,18.359,31.641,21.332,31.641,25.000C31.641,28.668,28.668,31.641,25.000,31.641ZM34.375,5.078L15.625,5.078C9.803,5.085,5.085,9.803,5.078,15.625L5.078,34.375C5.085,40.197,9.803,44.915,15.625,44.922L34.375,44.922C40.197,44.915,44.915,40.197,44.922,34.375L44.922,15.625C44.915,9.803,40.197,5.085,34.375,5.078ZM42.578,34.375C42.578,38.905,38.905,42.578,34.375,42.578L15.625,42.578C11.095,42.578,7.422,38.905,7.422,34.375L7.422,15.625C7.422,11.095,11.095,7.422,15.625,7.422L34.375,7.422C38.905,7.422,42.578,11.095,42.578,15.625ZM37.109,14.844C37.109,15.922,36.235,16.797,35.156,16.797C34.078,16.797,33.203,15.922,33.203,14.844C33.203,13.765,34.078,12.891,35.156,12.891C36.235,12.891,37.109,13.765,37.109,14.844Z" style="fill: rgb(62, 143, 176); fill-opacity: 1;" class="fills"/></g></svg>