<svg width="62" xmlns="http://www.w3.org/2000/svg" height="62" fill="none"><g style="fill: rgb(0, 0, 0);"><path d="M40.545,42.155L26.694,31.000M40.545,42.155L40.545,19.845M40.545,42.155L40.545,47.787C40.545,49.543,39.848,51.227,38.608,52.470M26.691,31.000L40.543,19.845M26.694,31.000L20.222,25.789M40.545,19.848L40.545,14.216C40.545,12.459,39.848,10.773,38.608,9.530M20.220,36.211L11.137,43.524C10.510,44.027,9.605,43.978,9.036,43.410L6.270,40.631C5.967,40.326,5.801,39.910,5.812,39.481C5.823,39.051,6.009,38.644,6.327,38.355L14.461,31.000M20.222,36.211L36.900,51.297C37.424,51.767,37.992,52.158,38.605,52.470M20.222,36.211L14.461,31.000M14.461,31.000L6.329,23.645C6.011,23.356,5.826,22.949,5.815,22.519C5.804,22.090,5.969,21.674,6.272,21.369L9.039,18.590C9.607,18.021,10.512,17.970,11.139,18.476L20.222,25.787M20.222,25.787L36.900,10.703C37.424,10.233,37.992,9.842,38.605,9.530M38.605,52.470C40.629,53.503,43.000,53.610,45.108,52.762L51.137,50.341C52.628,49.742,53.604,48.298,53.604,46.691L53.604,15.309C53.604,13.702,52.628,12.258,51.137,11.659L45.108,9.238C43.000,8.390,40.629,8.497,38.605,9.530" fill="none" style="fill: none;" class="fills"/><g fill="none" stroke-linejoin="round" class="strokes"><path d="M40.545,42.155L26.694,31.000M40.545,42.155L40.545,19.845M40.545,42.155L40.545,47.787C40.545,49.543,39.848,51.227,38.608,52.470M26.691,31.000L40.543,19.845M26.694,31.000L20.222,25.789M40.545,19.848L40.545,14.216C40.545,12.459,39.848,10.773,38.608,9.530M20.220,36.211L11.137,43.524C10.510,44.027,9.605,43.978,9.036,43.410L6.270,40.631C5.967,40.326,5.801,39.910,5.812,39.481C5.823,39.051,6.009,38.644,6.327,38.355L14.461,31.000M20.222,36.211L36.900,51.297C37.424,51.767,37.992,52.158,38.605,52.470M20.222,36.211L14.461,31.000M14.461,31.000L6.329,23.645C6.011,23.356,5.826,22.949,5.815,22.519C5.804,22.090,5.969,21.674,6.272,21.369L9.039,18.590C9.607,18.021,10.512,17.970,11.139,18.476L20.222,25.787M20.222,25.787L36.900,10.703C37.424,10.233,37.992,9.842,38.605,9.530M38.605,52.470C40.629,53.503,43.000,53.610,45.108,52.762L51.137,50.341C52.628,49.742,53.604,48.298,53.604,46.691L53.604,15.309C53.604,13.702,52.628,12.258,51.137,11.659L45.108,9.238C43.000,8.390,40.629,8.497,38.605,9.530" style="fill: none; stroke-width: 3.875; stroke: rgb(62, 143, 176); stroke-opacity: 1;" class="stroke-shape"/></g></g></svg>