<svg width="44" xmlns="http://www.w3.org/2000/svg" height="44" fill="none"><g style="fill: rgb(0, 0, 0);"><path d="M44.000,22.000C44.000,34.155,34.155,44.000,22.000,44.000C9.845,44.000,0.000,34.155,0.000,22.000C0.000,9.845,9.845,0.000,22.000,0.000C34.155,0.000,44.000,9.845,44.000,22.000ZM17.490,40.728L17.490,36.630C12.265,37.802,11.137,34.287,11.137,34.287C10.296,32.010,9.053,31.427,9.053,31.427C7.342,30.223,9.177,30.223,9.177,30.223C11.074,30.352,12.064,32.241,12.064,32.241C13.745,35.238,16.464,34.389,17.537,33.869C17.693,32.599,18.191,31.721,18.719,31.232C14.539,30.775,10.167,29.084,10.167,21.524C10.167,19.376,10.912,17.619,12.097,16.244C11.910,15.758,11.256,13.739,12.284,11.047C12.284,11.047,13.871,10.527,17.454,13.065C18.985,12.637,20.567,12.417,22.157,12.414C23.744,12.414,25.374,12.642,26.859,13.065C30.434,10.527,32.029,11.047,32.029,11.047C33.058,13.747,32.403,15.777,32.216,16.244C33.432,17.611,34.147,19.379,34.147,21.524C34.147,29.087,29.747,30.737,25.567,31.232C26.254,31.851,26.944,33.022,26.944,34.889L26.944,40.637C35.392,38.402,41.275,30.758,41.272,22.019C41.272,11.377,32.665,2.769,22.022,2.769C11.380,2.769,2.772,11.377,2.772,22.019C2.772,31.094,9.069,38.712,17.490,40.728ZZ" fill-rule="evenodd" clip-rule="evenodd" style="fill: rgb(62, 143, 176); fill-opacity: 1;" class="fills"/></g></svg>